<svg xmlns="http://www.w3.org/2000/svg" width="24" height="24" viewBox="0 0 400 400"><path id="path0" d="M263.550 35.591 C 236.910 38.943,220.941 67.513,232.148 91.771 C 246.430 122.681,290.370 122.681,304.652 91.771 C 317.586 63.777,294.148 31.741,263.550 35.591 M192.350 303.991 C 159.530 308.120,145.670 348.406,169.032 371.768 C 188.641 391.377,221.791 385.409,233.452 360.171 C 246.386 332.177,222.948 300.141,192.350 303.991 " stroke="none" fill="#fbfbfb" fill-rule="evenodd"></path><path id="path1" d="M41.237 1.099 C 41.467 1.704,45.405 11.830,49.989 23.600 C 65.958 64.609,81.692 105.024,83.002 108.400 C 84.821 113.086,105.249 165.567,119.279 201.600 C 132.686 236.031,131.721 233.550,139.564 253.733 L 145.600 269.265 145.600 334.633 L 145.600 400.000 197.000 400.000 L 248.400 400.000 248.400 334.606 L 248.400 269.213 255.839 250.106 C 275.642 199.244,307.515 117.364,311.000 108.400 C 314.337 99.817,336.520 42.832,344.010 23.600 C 348.594 11.830,352.533 1.704,352.763 1.099 L 353.181 -0.003 297.766 0.099 L 242.350 0.200 232.148 26.400 C 226.536 40.810,216.729 66.010,210.355 82.400 C 203.980 98.790,198.363 113.226,197.872 114.480 L 196.980 116.760 196.034 114.280 C 195.094 111.815,181.370 76.529,161.856 26.400 L 151.656 0.200 96.237 0.099 L 40.819 -0.003 41.237 1.099 M278.400 36.374 C 308.499 44.237,318.602 82.356,296.290 103.871 C 278.488 121.037,249.521 118.300,235.580 98.133 C 218.681 73.689,233.144 40.144,262.600 35.463 C 265.747 34.963,275.053 35.499,278.400 36.374 M207.200 304.774 C 234.145 311.813,245.885 343.585,230.020 366.533 C 214.355 389.193,180.045 389.193,164.380 366.533 C 147.481 342.089,161.944 308.544,191.400 303.863 C 194.547 303.363,203.853 303.899,207.200 304.774 " stroke="none" fill="#acacac" fill-rule="evenodd"></path><path id="path2" d="" stroke="none" fill="#dcdcdc" fill-rule="evenodd"></path><path id="path3" d="" stroke="none" fill="#d4d4d4" fill-rule="evenodd"></path><path id="path4" d="" stroke="none" fill="#cccccc" fill-rule="evenodd"></path></svg>
